<svg id="Layer_1" data-name="Layer 1" xmlns="http://www.w3.org/2000/svg" viewBox="0 0 170.81 60"><defs><style>.cls-1{fill:#fff;}</style></defs><title>logo branca</title><path class="cls-1" d="M62.57,26.16l1.35,8.07H62.15l-.26-1.8h-3l-1,1.8H56l4.76-8.07Zm-.83,4.95-.4-3.21h0l-1.74,3.21Z"/><path class="cls-1" d="M68.13,29.51a1,1,0,0,0-.69-.21,1.59,1.59,0,0,0-.7.13.45.45,0,0,0-.28.45.43.43,0,0,0,.16.32,1.67,1.67,0,0,0,.58.26l.8.26a4.17,4.17,0,0,1,.6.24,1.91,1.91,0,0,1,.49.33,1.54,1.54,0,0,1,.33.47,1.56,1.56,0,0,1,.12.64,1.71,1.71,0,0,1-.25.92,1.87,1.87,0,0,1-.64.61,2.79,2.79,0,0,1-.89.34,4.87,4.87,0,0,1-1,.1,4.43,4.43,0,0,1-.87-.09,2.49,2.49,0,0,1-.79-.3,1.7,1.7,0,0,1-.58-.55,1.47,1.47,0,0,1-.23-.86v-.24h1.48v.19a.58.58,0,0,0,.1.35.78.78,0,0,0,.27.24,1.11,1.11,0,0,0,.37.15,2,2,0,0,0,.41.05l.36,0a1.07,1.07,0,0,0,.33-.12.73.73,0,0,0,.24-.22.54.54,0,0,0,.09-.33.5.5,0,0,0-.16-.43,1.37,1.37,0,0,0-.42-.21l-1.23-.4-.54-.21a1.42,1.42,0,0,1-.39-.29,1.18,1.18,0,0,1-.25-.4,1.72,1.72,0,0,1-.08-.59,1.49,1.49,0,0,1,.24-.87,1.73,1.73,0,0,1,.63-.57,2.82,2.82,0,0,1,.84-.32,4.56,4.56,0,0,1,.87-.1,5.43,5.43,0,0,1,.92.08,2.28,2.28,0,0,1,.77.29,1.46,1.46,0,0,1,.53.57,1.84,1.84,0,0,1,.18.93H68.35A.83.83,0,0,0,68.13,29.51Z"/><path class="cls-1" d="M73.77,29.51a1,1,0,0,0-.69-.21,1.59,1.59,0,0,0-.7.13.45.45,0,0,0-.28.45.41.41,0,0,0,.17.32,1.52,1.52,0,0,0,.57.26l.8.26a4.17,4.17,0,0,1,.6.24,1.91,1.91,0,0,1,.49.33,1.54,1.54,0,0,1,.33.47,1.56,1.56,0,0,1,.12.64,1.71,1.71,0,0,1-.25.92,1.87,1.87,0,0,1-.64.61,2.79,2.79,0,0,1-.89.34,4.85,4.85,0,0,1-1,.1,4.46,4.46,0,0,1-.88-.09,2.59,2.59,0,0,1-.79-.3,1.7,1.7,0,0,1-.58-.55,1.55,1.55,0,0,1-.23-.86v-.24H71.4v.19a.58.58,0,0,0,.1.35.78.78,0,0,0,.27.24,1.11,1.11,0,0,0,.37.15,2,2,0,0,0,.41.05l.37,0a1.12,1.12,0,0,0,.32-.12.73.73,0,0,0,.24-.22.54.54,0,0,0,.09-.33.5.5,0,0,0-.16-.43A1.37,1.37,0,0,0,73,32l-1.23-.4c-.2-.07-.38-.14-.53-.21a1.33,1.33,0,0,1-.4-.29,1.18,1.18,0,0,1-.25-.4,1.72,1.72,0,0,1-.08-.59,1.49,1.49,0,0,1,.24-.87,1.73,1.73,0,0,1,.63-.57,2.82,2.82,0,0,1,.84-.32,4.56,4.56,0,0,1,.87-.1,5.43,5.43,0,0,1,.92.08,2.28,2.28,0,0,1,.77.29,1.46,1.46,0,0,1,.53.57,1.84,1.84,0,0,1,.18.93H74A.83.83,0,0,0,73.77,29.51Z"/><path class="cls-1" d="M78.37,28.38l-1.24,5.85h-1.6l1.23-5.85Zm-1.43-.9.29-1.32h1.62l-.29,1.32Z"/><path class="cls-1" d="M82.11,29.51a.94.94,0,0,0-.68-.21,1.61,1.61,0,0,0-.71.13.45.45,0,0,0-.28.45.41.41,0,0,0,.17.32,1.7,1.7,0,0,0,.57.26l.8.26a4.17,4.17,0,0,1,.6.24,1.91,1.91,0,0,1,.49.33,1.54,1.54,0,0,1,.33.47,1.56,1.56,0,0,1,.12.64,1.63,1.63,0,0,1-.25.92,1.93,1.93,0,0,1-.63.61,3,3,0,0,1-.9.34,4.78,4.78,0,0,1-1,.1,4.28,4.28,0,0,1-.87-.09,2.55,2.55,0,0,1-.8-.3,1.7,1.7,0,0,1-.58-.55,1.55,1.55,0,0,1-.23-.86v-.24h1.48v.19a.65.65,0,0,0,.1.35.78.78,0,0,0,.27.24,1.11,1.11,0,0,0,.37.15,2,2,0,0,0,.41.05,2.22,2.22,0,0,0,.37,0,1,1,0,0,0,.32-.12.73.73,0,0,0,.24-.22.54.54,0,0,0,.09-.33.5.5,0,0,0-.16-.43,1.42,1.42,0,0,0-.41-.21l-1.24-.4c-.2-.07-.38-.14-.53-.21a1.33,1.33,0,0,1-.4-.29,1.18,1.18,0,0,1-.25-.4,2,2,0,0,1-.08-.59,1.49,1.49,0,0,1,.24-.87,1.73,1.73,0,0,1,.63-.57,2.82,2.82,0,0,1,.84-.32,4.66,4.66,0,0,1,.88-.1,5.4,5.4,0,0,1,.91.08,2.34,2.34,0,0,1,.78.29,1.51,1.51,0,0,1,.52.57,1.84,1.84,0,0,1,.18.93H82.33A.83.83,0,0,0,82.11,29.51Z"/><path class="cls-1" d="M88.29,28.38,88,29.46H86.9l-.6,2.9a1.36,1.36,0,0,0,0,.17s0,.08,0,.1a.55.55,0,0,0,0,.25.36.36,0,0,0,.31.18h.19l.57,0-.27,1.23-.5,0-.51,0a3.41,3.41,0,0,1-.55,0,1.73,1.73,0,0,1-.5-.18.93.93,0,0,1-.35-.36,1.06,1.06,0,0,1-.12-.59,2.5,2.5,0,0,1,0-.25l.06-.3.65-3.13h-1l.25-1.08h1l.36-1.77H87.5l-.37,1.77Z"/><path class="cls-1" d="M89.6,31.8V32a1.09,1.09,0,0,0,.32.83,1.32,1.32,0,0,0,1,.32,1.08,1.08,0,0,0,.42-.08,1.48,1.48,0,0,0,.33-.18,2,2,0,0,0,.25-.26c.07-.1.13-.2.2-.29h1.6a4.43,4.43,0,0,1-.45.87,2.65,2.65,0,0,1-.62.63,2.54,2.54,0,0,1-.85.38,4.6,4.6,0,0,1-1.11.12,3.59,3.59,0,0,1-1.07-.15,2.07,2.07,0,0,1-1.34-1.28,2.93,2.93,0,0,1-.19-1.11,4.07,4.07,0,0,1,.23-1.35,3.59,3.59,0,0,1,.64-1.15,3,3,0,0,1,2.35-1.11,3.93,3.93,0,0,1,1.12.16,2.49,2.49,0,0,1,.86.48,2.33,2.33,0,0,1,.55.81,2.93,2.93,0,0,1,.2,1.11,4.92,4.92,0,0,1-.09.91H89.61A.45.45,0,0,0,89.6,31.8Zm2.82-1.57a1.28,1.28,0,0,0-.15-.4.85.85,0,0,0-.33-.29,1.28,1.28,0,0,0-.57-.11,1.64,1.64,0,0,0-.6.11,1.29,1.29,0,0,0-.45.27,1.52,1.52,0,0,0-.32.39,2.62,2.62,0,0,0-.22.48h2.68A2.28,2.28,0,0,0,92.42,30.23Zm.39-4.18.94,1.61H92.62l-.57-.92-1,.92H89.84l1.54-1.61Z"/><path class="cls-1" d="M96.83,28.38l-.18.82h0a2.51,2.51,0,0,1,2-1c1.14,0,1.71.53,1.71,1.58a1.2,1.2,0,0,1,0,.23c0,.09,0,.19-.05.29s0,.19,0,.27a1.23,1.23,0,0,0,0,.21l-.73,3.43h-1.6l.71-3.43q0-.14.06-.36a1.85,1.85,0,0,0,0-.35.51.51,0,0,0-.24-.43.93.93,0,0,0-.53-.17,1.39,1.39,0,0,0-.63.14,1.62,1.62,0,0,0-.48.37,2.1,2.1,0,0,0-.33.52,3.22,3.22,0,0,0-.19.6l-.66,3.11H94.09l1.21-5.85Z"/><path class="cls-1" d="M105.06,29.66a1.42,1.42,0,0,0-1.58,0,1.79,1.79,0,0,0-.51.61,3.1,3.1,0,0,0-.28.81,4.82,4.82,0,0,0-.08.81,1.93,1.93,0,0,0,.06.49.88.88,0,0,0,.19.4.82.82,0,0,0,.34.27,1.14,1.14,0,0,0,.52.11,1.21,1.21,0,0,0,.48-.09,1.31,1.31,0,0,0,.37-.24,1.17,1.17,0,0,0,.27-.35,3,3,0,0,0,.18-.41h1.6a3.49,3.49,0,0,1-1.11,1.69,3,3,0,0,1-1.91.59,2.79,2.79,0,0,1-1.91-.6,2.39,2.39,0,0,1-.69-1.89,4.63,4.63,0,0,1,.22-1.41,3.71,3.71,0,0,1,.65-1.17,3.22,3.22,0,0,1,1-.79,3.3,3.3,0,0,1,1.4-.29,4.11,4.11,0,0,1,1,.13,2.43,2.43,0,0,1,.83.38,1.89,1.89,0,0,1,.57.68,2.34,2.34,0,0,1,.22,1h-1.61A1,1,0,0,0,105.06,29.66Z"/><path class="cls-1" d="M109.67,28.38l-1.24,5.85h-1.61l1.24-5.85Zm-1.43-.9.29-1.32h1.62l-.3,1.32Z"/><path class="cls-1" d="M110.67,29.24a2,2,0,0,1,.63-.6,2.82,2.82,0,0,1,.84-.32,5,5,0,0,1,1-.1,5.87,5.87,0,0,1,.82.06,2.79,2.79,0,0,1,.79.22,1.56,1.56,0,0,1,.6.47,1.2,1.2,0,0,1,.22.79,4.34,4.34,0,0,1-.13,1l-.52,2.35a1.78,1.78,0,0,0-.06.39c0,.15,0,.28,0,.4a1.16,1.16,0,0,0,.06.34h-1.6v-.58a2,2,0,0,1-.81.55,2.7,2.7,0,0,1-1,.17,2.59,2.59,0,0,1-.83-.12,1.6,1.6,0,0,1-.59-.33,1.27,1.27,0,0,1-.35-.49,1.43,1.43,0,0,1-.12-.58,1.74,1.74,0,0,1,.58-1.36,3,3,0,0,1,1.65-.63c.38-.05.7-.08,1-.1a4.93,4.93,0,0,0,.7-.11.84.84,0,0,0,.41-.22.67.67,0,0,0,0-.78.76.76,0,0,0-.25-.22,1.15,1.15,0,0,0-.33-.1,1.93,1.93,0,0,0-.33,0,1.44,1.44,0,0,0-.77.21.88.88,0,0,0-.42.65h-1.5A2,2,0,0,1,110.67,29.24Zm2.39,2.4-.7.07a3.35,3.35,0,0,0-.44.07,1.16,1.16,0,0,0-.38.15.78.78,0,0,0-.26.28.86.86,0,0,0-.1.45.54.54,0,0,0,.26.49,1.15,1.15,0,0,0,.62.16,1.48,1.48,0,0,0,.63-.12,1.45,1.45,0,0,0,.42-.3,1.52,1.52,0,0,0,.28-.43,2.64,2.64,0,0,0,.17-.47l.16-.57A1.52,1.52,0,0,1,113.06,31.64Z"/><path class="cls-1" d="M124.71,27.83a1.46,1.46,0,0,0-1-.37,2.14,2.14,0,0,0-1.18.31,2.44,2.44,0,0,0-.83.8,3.9,3.9,0,0,0-.48,1.1,4.41,4.41,0,0,0-.16,1.18,2.9,2.9,0,0,0,.11.79,1.86,1.86,0,0,0,.33.66,1.59,1.59,0,0,0,.56.46,1.92,1.92,0,0,0,.83.17,2,2,0,0,0,.69-.13,2.36,2.36,0,0,0,.57-.35,2.39,2.39,0,0,0,.42-.52,1.94,1.94,0,0,0,.22-.61h1.78a6.47,6.47,0,0,1-.64,1.44,3.71,3.71,0,0,1-.83,1,2.8,2.8,0,0,1-1,.53,4.33,4.33,0,0,1-1.22.17,3.62,3.62,0,0,1-2.65-.92,3.54,3.54,0,0,1-.93-2.64,5.77,5.77,0,0,1,.3-1.87,4.92,4.92,0,0,1,.88-1.55,4.08,4.08,0,0,1,1.39-1.07,4.39,4.39,0,0,1,3.14-.2,2.73,2.73,0,0,1,1,.57,2.48,2.48,0,0,1,.67.94,3.07,3.07,0,0,1,.23,1.29h-1.78A1.48,1.48,0,0,0,124.71,27.83Z"/><path class="cls-1" d="M127.32,30.46A3.6,3.6,0,0,1,128,29.3a3.24,3.24,0,0,1,1.06-.79,3.3,3.3,0,0,1,1.4-.29,3.79,3.79,0,0,1,1.1.16,2.34,2.34,0,0,1,.87.46,1.94,1.94,0,0,1,.55.76,2.67,2.67,0,0,1,.2,1.1,4.26,4.26,0,0,1-.23,1.44,3.38,3.38,0,0,1-.67,1.17,3.21,3.21,0,0,1-1.07.78,3.41,3.41,0,0,1-1.43.28,2.94,2.94,0,0,1-2-.62,2.35,2.35,0,0,1-.73-1.89A4.33,4.33,0,0,1,127.32,30.46Zm1.45,1.9a1.2,1.2,0,0,0,.22.42,1.12,1.12,0,0,0,.36.29,1.15,1.15,0,0,0,.5.11,1.25,1.25,0,0,0,.77-.25,1.87,1.87,0,0,0,.54-.61,3.42,3.42,0,0,0,.31-.79,4.07,4.07,0,0,0,.1-.81,1.52,1.52,0,0,0-.27-.94,1.09,1.09,0,0,0-.91-.35,1.24,1.24,0,0,0-.76.25,1.91,1.91,0,0,0-.53.6,3.4,3.4,0,0,0-.3.79,3.29,3.29,0,0,0-.1.79A1.63,1.63,0,0,0,128.77,32.36Z"/><path class="cls-1" d="M136.08,28.38l-.18.82h0a2.5,2.5,0,0,1,2.05-1c1.13,0,1.7.53,1.7,1.58,0,.06,0,.13,0,.23s0,.19-.05.29,0,.19-.06.27,0,.16,0,.21l-.72,3.43h-1.61l.72-3.43q0-.14.06-.36a1.85,1.85,0,0,0,0-.35.51.51,0,0,0-.24-.43,1,1,0,0,0-.53-.17,1.47,1.47,0,0,0-.64.14,1.71,1.71,0,0,0-.47.37,1.84,1.84,0,0,0-.33.52,3.25,3.25,0,0,0-.2.6l-.66,3.11h-1.59l1.21-5.85Z"/><path class="cls-1" d="M144.43,28.38l-.25,1.08H143l-.6,2.9,0,.17a.41.41,0,0,0,0,.1.44.44,0,0,0,0,.25.33.33,0,0,0,.13.13.48.48,0,0,0,.17.05h.19a5.63,5.63,0,0,0,.58,0l-.28,1.23-.49,0-.51,0a3.43,3.43,0,0,1-.56,0,1.85,1.85,0,0,1-.5-.18,1,1,0,0,1-.35-.36,1.06,1.06,0,0,1-.12-.59,2.5,2.5,0,0,1,0-.25l.06-.3.66-3.13h-1l.24-1.08h1l.36-1.77h1.61l-.36,1.77Z"/><path class="cls-1" d="M145.11,29.24a2,2,0,0,1,.63-.6,2.82,2.82,0,0,1,.84-.32,5,5,0,0,1,1-.1,5.87,5.87,0,0,1,.82.06,3,3,0,0,1,.8.22,1.6,1.6,0,0,1,.59.47,1.2,1.2,0,0,1,.22.79,4.9,4.9,0,0,1-.12,1l-.52,2.35a1.3,1.3,0,0,0-.07.39c0,.15,0,.28,0,.4a1.12,1.12,0,0,0,.05.34h-1.6v-.58a2,2,0,0,1-.81.55,2.7,2.7,0,0,1-1,.17,2.59,2.59,0,0,1-.83-.12,1.68,1.68,0,0,1-.59-.33,1.27,1.27,0,0,1-.35-.49,1.43,1.43,0,0,1-.12-.58,1.71,1.71,0,0,1,.59-1.36,2.89,2.89,0,0,1,1.64-.63c.38-.05.71-.08,1-.1a4.93,4.93,0,0,0,.7-.11.84.84,0,0,0,.41-.22.57.57,0,0,0,.14-.42.64.64,0,0,0-.1-.36.92.92,0,0,0-.26-.22,1.15,1.15,0,0,0-.33-.1,1.84,1.84,0,0,0-.33,0,1.44,1.44,0,0,0-.77.21.94.94,0,0,0-.42.65h-1.5A2.06,2.06,0,0,1,145.11,29.24Zm2.4,2.4-.71.07a3.35,3.35,0,0,0-.44.07,1.16,1.16,0,0,0-.38.15.88.88,0,0,0-.26.28.86.86,0,0,0-.1.45.56.56,0,0,0,.26.49,1.17,1.17,0,0,0,.62.16,1.48,1.48,0,0,0,.63-.12,1.5,1.5,0,0,0,.43-.3,1.48,1.48,0,0,0,.27-.43A2.64,2.64,0,0,0,148,32l.16-.57A1.52,1.52,0,0,1,147.51,31.64Zm-.12-4,1-1.61h1.71l-1.58,1.61Z"/><path class="cls-1" d="M153.52,26.16l-.6,2.84h0a2.69,2.69,0,0,1,.77-.59,2.28,2.28,0,0,1,1-.19,2.13,2.13,0,0,1,1,.2,1.72,1.72,0,0,1,.65.54,2.32,2.32,0,0,1,.38.79,4.21,4.21,0,0,1,.11,1,4.72,4.72,0,0,1-.19,1.34,3.92,3.92,0,0,1-.57,1.18,3.15,3.15,0,0,1-.95.83,2.68,2.68,0,0,1-1.32.31,2.72,2.72,0,0,1-1.11-.22,1.39,1.39,0,0,1-.72-.84h0l-.19.92h-1.47l1.68-8.07Zm-.3,3.52a2.27,2.27,0,0,0-.53.62,3.09,3.09,0,0,0-.31.82,4.11,4.11,0,0,0-.09.82,1.3,1.3,0,0,0,.3.89,1.1,1.1,0,0,0,.86.35,1.3,1.3,0,0,0,.79-.24,2,2,0,0,0,.53-.61,2.69,2.69,0,0,0,.3-.79,3.44,3.44,0,0,0,.1-.81,1.61,1.61,0,0,0-.26-.92,1,1,0,0,0-.88-.38A1.35,1.35,0,0,0,153.22,29.68Z"/><path class="cls-1" d="M159.76,28.38l-1.25,5.85h-1.6l1.23-5.85Zm-1.44-.9.3-1.32h1.61l-.29,1.32Z"/><path class="cls-1" d="M162.92,26.16l-1.72,8.07h-1.59l1.71-8.07Z"/><path class="cls-1" d="M9,35.43,167.39,35s-82,2.8-101.11,2.38S9,35.43,9,35.43Z"/><path class="cls-1" d="M12.93,41.46l84.3-.39s-43.66,2.65-53.82,2.25S12.93,41.46,12.93,41.46Z"/><path class="cls-1" d="M13.07,46.5l64.28-.39s-33.29,2.65-41,2.25S13.07,46.5,13.07,46.5Z"/><path class="cls-1" d="M8.52,18.8l1.82,15.9h4.27L19,24.48l.91,10.15h4.13l7.07-16H27.91L23.43,29.94l-.7-11.28H18.81L14,29.94l-.77-11.35S8.66,18.94,8.52,18.8Z"/><polygon class="cls-1" points="32.39 18.66 29.52 34.35 32.6 34.35 34.49 23.77 36.87 29.66 39.81 29.66 44.65 23.36 42.9 34.42 47.1 34.42 49.48 18.59 45.21 18.59 39.74 25.81 36.66 18.52 32.39 18.66"/><path class="cls-1" d="M28.45,5.27h-.16A24,24,0,0,1,52.39,29,24,24,0,0,1,28.13,52.8,24,24,0,0,1,3.87,29,23.88,23.88,0,0,1,22,6C10.73,8.77,2.4,18.5,2.4,30.08c0,13.7,11.66,24.81,26.05,24.81s26-11.11,26-24.81S42.83,5.27,28.45,5.27Z"/></svg>