<svg id="Layer_1" data-name="Layer 1" xmlns="http://www.w3.org/2000/svg" viewBox="0 0 228.08 68.6"><defs><style>.cls-1{fill:#322e48;}.cls-2{fill:#004584;}</style></defs><title>logomarca</title><path class="cls-1" d="M272.1,190.74,274,201.9h-2.44l-.36-2.49H267l-1.41,2.49H263l6.57-11.16Zm-1.16,6.85-.54-4.44h0L268,197.59Z" transform="translate(-188.92 -161.86)"/><path class="cls-1" d="M279.78,195.38a1.27,1.27,0,0,0-.95-.29,2.27,2.27,0,0,0-1,.18.61.61,0,0,0-.38.61.58.58,0,0,0,.22.46,2.69,2.69,0,0,0,.79.36l1.11.36a6.38,6.38,0,0,1,.84.32,2.94,2.94,0,0,1,.67.46,2.1,2.1,0,0,1,.45.65,2.16,2.16,0,0,1,.17.88,2.33,2.33,0,0,1-.34,1.27,2.65,2.65,0,0,1-.88.85,3.85,3.85,0,0,1-1.24.47,6.49,6.49,0,0,1-1.39.14,6.18,6.18,0,0,1-1.2-.12,3.45,3.45,0,0,1-1.1-.42,2.36,2.36,0,0,1-.81-.76,2.14,2.14,0,0,1-.31-1.2v-.33h2.05v.27a.76.76,0,0,0,.14.48,1.07,1.07,0,0,0,.36.34,1.81,1.81,0,0,0,.52.2,2.22,2.22,0,0,0,.57.07,2.81,2.81,0,0,0,.5,0,1.28,1.28,0,0,0,.45-.17.94.94,0,0,0,.33-.29.83.83,0,0,0,.13-.46.74.74,0,0,0-.22-.6,2.4,2.4,0,0,0-.58-.3l-1.7-.54c-.29-.1-.53-.2-.75-.3a1.78,1.78,0,0,1-.54-.39,1.61,1.61,0,0,1-.35-.56,2.71,2.71,0,0,1-.11-.82,2.09,2.09,0,0,1,.33-1.2,2.87,2.87,0,0,1,.87-.79,3.75,3.75,0,0,1,1.16-.43,5.92,5.92,0,0,1,1.21-.14,7.5,7.5,0,0,1,1.27.11,3,3,0,0,1,1.07.4,2.06,2.06,0,0,1,.73.79,2.68,2.68,0,0,1,.25,1.28h-2.07A1.14,1.14,0,0,0,279.78,195.38Z" transform="translate(-188.92 -161.86)"/><path class="cls-1" d="M287.58,195.38a1.29,1.29,0,0,0-.95-.29,2.27,2.27,0,0,0-1,.18.62.62,0,0,0-.39.61.59.59,0,0,0,.23.46,2.57,2.57,0,0,0,.79.36l1.11.36a5.74,5.74,0,0,1,.83.32,3,3,0,0,1,.68.46,2.1,2.1,0,0,1,.45.65,2.16,2.16,0,0,1,.16.88,2.33,2.33,0,0,1-.33,1.27,2.68,2.68,0,0,1-.89.85,3.7,3.7,0,0,1-1.23.47,6.49,6.49,0,0,1-1.39.14,6.11,6.11,0,0,1-1.2-.12,3.6,3.6,0,0,1-1.11-.42,2.42,2.42,0,0,1-.8-.76,2.14,2.14,0,0,1-.31-1.2v-.33h2v.27a.83.83,0,0,0,.14.48,1.2,1.2,0,0,0,.37.34,1.61,1.61,0,0,0,.52.2,2.22,2.22,0,0,0,.57.07,2.89,2.89,0,0,0,.5,0,1.44,1.44,0,0,0,.45-.17.94.94,0,0,0,.33-.29.83.83,0,0,0,.12-.46.71.71,0,0,0-.22-.6,2.15,2.15,0,0,0-.57-.3l-1.71-.54c-.28-.1-.53-.2-.74-.3a2,2,0,0,1-.55-.39,1.59,1.59,0,0,1-.34-.56,2.41,2.41,0,0,1-.12-.82,2.1,2.1,0,0,1,.34-1.2,2.65,2.65,0,0,1,.87-.79,3.75,3.75,0,0,1,1.16-.43,5.84,5.84,0,0,1,1.21-.14,7.5,7.5,0,0,1,1.27.11,3,3,0,0,1,1.07.4,2,2,0,0,1,.72.79,2.57,2.57,0,0,1,.25,1.28h-2.06A1.14,1.14,0,0,0,287.58,195.38Z" transform="translate(-188.92 -161.86)"/><path class="cls-1" d="M293.94,193.82l-1.71,8.08H290l1.7-8.08Zm-2-1.25.41-1.83h2.23l-.41,1.83Z" transform="translate(-188.92 -161.86)"/><path class="cls-1" d="M299.11,195.38a1.27,1.27,0,0,0-.95-.29,2.27,2.27,0,0,0-1,.18.62.62,0,0,0-.39.61.59.59,0,0,0,.23.46,2.57,2.57,0,0,0,.79.36l1.11.36a5.74,5.74,0,0,1,.83.32,3,3,0,0,1,.68.46,2.1,2.1,0,0,1,.45.65,2.16,2.16,0,0,1,.16.88,2.33,2.33,0,0,1-.33,1.27,2.68,2.68,0,0,1-.89.85,3.7,3.7,0,0,1-1.23.47,6.49,6.49,0,0,1-1.39.14A6.11,6.11,0,0,1,296,202a3.6,3.6,0,0,1-1.11-.42,2.42,2.42,0,0,1-.8-.76,2.14,2.14,0,0,1-.31-1.2v-.33h2v.27a.76.76,0,0,0,.15.48,1.07,1.07,0,0,0,.36.34,1.61,1.61,0,0,0,.52.2,2.22,2.22,0,0,0,.57.07,2.89,2.89,0,0,0,.5,0,1.35,1.35,0,0,0,.45-.17.94.94,0,0,0,.33-.29.83.83,0,0,0,.12-.46.74.74,0,0,0-.21-.6,2.4,2.4,0,0,0-.58-.3l-1.71-.54c-.28-.1-.52-.2-.74-.3a1.78,1.78,0,0,1-.54-.39,1.48,1.48,0,0,1-.35-.56,2.41,2.41,0,0,1-.12-.82,2.1,2.1,0,0,1,.34-1.2,2.65,2.65,0,0,1,.87-.79,3.75,3.75,0,0,1,1.16-.43,5.84,5.84,0,0,1,1.21-.14,7.5,7.5,0,0,1,1.27.11,3,3,0,0,1,1.07.4,2.06,2.06,0,0,1,.73.79,2.68,2.68,0,0,1,.25,1.28h-2.07A1.14,1.14,0,0,0,299.11,195.38Z" transform="translate(-188.92 -161.86)"/><path class="cls-1" d="M307.65,193.82l-.35,1.49h-1.57l-.83,4c0,.08,0,.16,0,.23s0,.12,0,.15a.74.74,0,0,0,.07.33.52.52,0,0,0,.18.18.55.55,0,0,0,.25.07h.25a6.87,6.87,0,0,0,.8,0L306,202l-.69.05c-.23,0-.46,0-.7,0a4.11,4.11,0,0,1-.78-.07,2,2,0,0,1-.69-.25,1.33,1.33,0,0,1-.48-.49,1.52,1.52,0,0,1-.16-.81,2.36,2.36,0,0,1,0-.35,3.83,3.83,0,0,1,.08-.42l.9-4.32h-1.45l.34-1.49h1.42l.5-2.45h2.22l-.5,2.45Z" transform="translate(-188.92 -161.86)"/><path class="cls-1" d="M309.46,198.54v.33a1.54,1.54,0,0,0,.44,1.14,1.83,1.83,0,0,0,1.34.44,1.55,1.55,0,0,0,.59-.11,1.63,1.63,0,0,0,.45-.25,2.31,2.31,0,0,0,.34-.36l.28-.39h2.22a5.63,5.63,0,0,1-.63,1.2,3.55,3.55,0,0,1-.86.87,3.51,3.51,0,0,1-1.16.52,6,6,0,0,1-1.54.17,4.6,4.6,0,0,1-1.48-.22,2.84,2.84,0,0,1-1.13-.66,3,3,0,0,1-.73-1.1,4.23,4.23,0,0,1-.26-1.53,5.61,5.61,0,0,1,.32-1.87,5.12,5.12,0,0,1,.88-1.59,4.11,4.11,0,0,1,1.4-1.11,4,4,0,0,1,1.86-.42,5.35,5.35,0,0,1,1.54.22,3.11,3.11,0,0,1,1.18.67,2.91,2.91,0,0,1,.77,1.1,4.11,4.11,0,0,1,.27,1.54,7.24,7.24,0,0,1-.12,1.27h-5.95A.36.36,0,0,0,309.46,198.54Zm3.9-2.16a1.71,1.71,0,0,0-.21-.56,1.13,1.13,0,0,0-.46-.4,1.69,1.69,0,0,0-.78-.15,2.16,2.16,0,0,0-.83.15,2,2,0,0,0-.62.37,2.17,2.17,0,0,0-.45.55,3.83,3.83,0,0,0-.3.65h3.7A4.07,4.07,0,0,0,313.36,196.38Zm.54-5.78,1.29,2.22h-1.56l-.78-1.26-1.36,1.26h-1.7l2.14-2.22Z" transform="translate(-188.92 -161.86)"/><path class="cls-1" d="M319.46,193.82l-.25,1.13h0a3.45,3.45,0,0,1,2.83-1.35c1.57,0,2.36.73,2.36,2.17a2.11,2.11,0,0,1,0,.32c0,.13,0,.27-.07.4s-.06.27-.08.39-.05.21-.06.28l-1,4.74H321l1-4.74c0-.12.05-.29.09-.5a3.55,3.55,0,0,0,.05-.48.68.68,0,0,0-.34-.59,1.2,1.2,0,0,0-.72-.24,2,2,0,0,0-.89.2,2.16,2.16,0,0,0-.65.51,2.46,2.46,0,0,0-.45.71,4.51,4.51,0,0,0-.28.83l-.9,4.3h-2.21l1.67-8.08Z" transform="translate(-188.92 -161.86)"/><path class="cls-1" d="M330.83,195.59a2,2,0,0,0-2.18,0,2.56,2.56,0,0,0-.71.85,4.62,4.62,0,0,0-.38,1.12,5.7,5.7,0,0,0-.12,1.12,3,3,0,0,0,.08.68,1.41,1.41,0,0,0,.74.93,1.71,1.71,0,0,0,.72.14,1.69,1.69,0,0,0,.66-.13,1.91,1.91,0,0,0,.52-.33,1.71,1.71,0,0,0,.37-.47,3.46,3.46,0,0,0,.24-.57H333a4.74,4.74,0,0,1-1.54,2.33,4.09,4.09,0,0,1-2.63.82,3.9,3.9,0,0,1-2.65-.83,3.33,3.33,0,0,1-.94-2.62,6.22,6.22,0,0,1,.3-2,4.86,4.86,0,0,1,.89-1.61,4.29,4.29,0,0,1,1.43-1.09,4.57,4.57,0,0,1,1.94-.4,5.69,5.69,0,0,1,1.39.17,3.49,3.49,0,0,1,1.15.54,2.63,2.63,0,0,1,.78.93,3.26,3.26,0,0,1,.3,1.38h-2.22A1.3,1.3,0,0,0,330.83,195.59Z" transform="translate(-188.92 -161.86)"/><path class="cls-1" d="M337.21,193.82l-1.72,8.08h-2.22l1.71-8.08Zm-2-1.25.4-1.83h2.24l-.41,1.83Z" transform="translate(-188.92 -161.86)"/><path class="cls-1" d="M338.58,195a3,3,0,0,1,.88-.82,3.37,3.37,0,0,1,1.16-.44,6.35,6.35,0,0,1,1.32-.14,9,9,0,0,1,1.14.08,3.51,3.51,0,0,1,1.1.31,2.15,2.15,0,0,1,.82.64,1.69,1.69,0,0,1,.3,1.1,6.13,6.13,0,0,1-.17,1.36l-.72,3.25a2.38,2.38,0,0,0-.08.54c0,.21,0,.39,0,.55a1.78,1.78,0,0,0,.08.47h-2.22v-.8a2.6,2.6,0,0,1-1.11.76,3.89,3.89,0,0,1-1.36.24,3.3,3.3,0,0,1-1.14-.17,2.31,2.31,0,0,1-.82-.46,1.76,1.76,0,0,1-.49-.67,2.25,2.25,0,0,1-.16-.81,2.35,2.35,0,0,1,.81-1.87,4.13,4.13,0,0,1,2.27-.88l1.36-.14a5.11,5.11,0,0,0,1-.15,1.09,1.09,0,0,0,.57-.29.81.81,0,0,0,.19-.59.85.85,0,0,0-.14-.5,1.14,1.14,0,0,0-.35-.3,1.39,1.39,0,0,0-.45-.14,2.63,2.63,0,0,0-.47,0,1.92,1.92,0,0,0-1.06.29,1.28,1.28,0,0,0-.58.89h-2.07A2.83,2.83,0,0,1,338.58,195Zm3.32,3.33c-.33,0-.65.06-1,.08a6,6,0,0,0-.61.11,1.42,1.42,0,0,0-.52.21,1,1,0,0,0-.37.38,1.16,1.16,0,0,0-.14.62.75.75,0,0,0,.36.68,1.62,1.62,0,0,0,.86.22,2,2,0,0,0,.86-.16,1.9,1.9,0,0,0,.6-.42,1.93,1.93,0,0,0,.38-.59,6.35,6.35,0,0,0,.23-.65l.22-.79A2.25,2.25,0,0,1,341.9,198.33Z" transform="translate(-188.92 -161.86)"/><path class="cls-1" d="M358,193.06a2,2,0,0,0-1.45-.52,3,3,0,0,0-1.63.43,3.77,3.77,0,0,0-1.14,1.11,4.88,4.88,0,0,0-.66,1.51,6.33,6.33,0,0,0-.22,1.64,3.88,3.88,0,0,0,.15,1.09,2.63,2.63,0,0,0,.45.92,2.22,2.22,0,0,0,.78.63,2.68,2.68,0,0,0,1.15.23,2.46,2.46,0,0,0,.94-.18,2.74,2.74,0,0,0,.79-.48,2.86,2.86,0,0,0,.58-.71,2.42,2.42,0,0,0,.31-.85h2.46a8.6,8.6,0,0,1-.89,2,4.94,4.94,0,0,1-1.14,1.32,4,4,0,0,1-1.4.73,6,6,0,0,1-1.68.23,5,5,0,0,1-3.67-1.27,4.88,4.88,0,0,1-1.29-3.65,7.59,7.59,0,0,1,.43-2.58,6.58,6.58,0,0,1,1.21-2.15,5.66,5.66,0,0,1,4.46-2,6,6,0,0,1,1.79.26,4,4,0,0,1,1.43.79,3.3,3.3,0,0,1,.93,1.3,4.34,4.34,0,0,1,.32,1.79h-2.46A2,2,0,0,0,358,193.06Z" transform="translate(-188.92 -161.86)"/><path class="cls-1" d="M361.61,196.69a4.79,4.79,0,0,1,.92-1.6A4.4,4.4,0,0,1,364,194a4.64,4.64,0,0,1,1.94-.4,5.22,5.22,0,0,1,1.52.21,3.22,3.22,0,0,1,1.2.64,2.77,2.77,0,0,1,.77,1.06,3.88,3.88,0,0,1,.27,1.51,6,6,0,0,1-.32,2,4.51,4.51,0,0,1-.93,1.61,4.19,4.19,0,0,1-1.47,1.08,4.79,4.79,0,0,1-2,.39,4,4,0,0,1-2.69-.86,3.24,3.24,0,0,1-1-2.61A5.68,5.68,0,0,1,361.61,196.69Zm2,2.63a1.88,1.88,0,0,0,.3.58,1.61,1.61,0,0,0,.5.4,1.52,1.52,0,0,0,.69.15,1.75,1.75,0,0,0,1.07-.34,2.73,2.73,0,0,0,.74-.84,4.58,4.58,0,0,0,.43-1.1,5.11,5.11,0,0,0,.14-1.11,2.11,2.11,0,0,0-.37-1.3,1.51,1.51,0,0,0-1.26-.49,1.69,1.69,0,0,0-1.05.34,2.58,2.58,0,0,0-.73.84,3.91,3.91,0,0,0-.42,1.08,4.42,4.42,0,0,0-.14,1.1A2.26,2.26,0,0,0,363.61,199.32Z" transform="translate(-188.92 -161.86)"/><path class="cls-1" d="M373.71,193.82l-.25,1.13h0a3.45,3.45,0,0,1,2.83-1.35c1.57,0,2.36.73,2.36,2.17a2.11,2.11,0,0,1,0,.32c0,.13,0,.27-.07.4s-.05.27-.08.39a2.43,2.43,0,0,0-.05.28l-1,4.74h-2.22l1-4.74c0-.12.05-.29.09-.5a3.55,3.55,0,0,0,.05-.48.68.68,0,0,0-.34-.59,1.2,1.2,0,0,0-.72-.24,1.9,1.9,0,0,0-.88.2,2.09,2.09,0,0,0-.66.51,2.69,2.69,0,0,0-.45.71,5.41,5.41,0,0,0-.28.83l-.9,4.3h-2.21l1.68-8.08Z" transform="translate(-188.92 -161.86)"/><path class="cls-1" d="M385.26,193.82l-.35,1.49h-1.57l-.83,4c0,.08,0,.16-.05.23s0,.12,0,.15a.74.74,0,0,0,.07.33.52.52,0,0,0,.18.18.55.55,0,0,0,.25.07h.25a6.87,6.87,0,0,0,.8,0l-.37,1.71-.69.05c-.23,0-.46,0-.7,0a4.11,4.11,0,0,1-.78-.07,2,2,0,0,1-.69-.25,1.33,1.33,0,0,1-.48-.49,1.52,1.52,0,0,1-.16-.81,2.36,2.36,0,0,1,0-.35,3.83,3.83,0,0,1,.08-.42l.9-4.32h-1.45l.34-1.49h1.42l.5-2.45h2.22l-.5,2.45Z" transform="translate(-188.92 -161.86)"/><path class="cls-1" d="M386.19,195a3,3,0,0,1,.88-.82,3.37,3.37,0,0,1,1.16-.44,6.35,6.35,0,0,1,1.32-.14,9,9,0,0,1,1.14.08,3.59,3.59,0,0,1,1.1.31,2.15,2.15,0,0,1,.82.64,1.69,1.69,0,0,1,.3,1.1,6.13,6.13,0,0,1-.17,1.36l-.72,3.25a2.38,2.38,0,0,0-.08.54c0,.21,0,.39,0,.55a1.78,1.78,0,0,0,.08.47h-2.22v-.8a2.6,2.6,0,0,1-1.11.76,3.89,3.89,0,0,1-1.36.24,3.3,3.3,0,0,1-1.14-.17,2.31,2.31,0,0,1-.82-.46,1.76,1.76,0,0,1-.49-.67,2.25,2.25,0,0,1-.16-.81,2.35,2.35,0,0,1,.81-1.87,4.13,4.13,0,0,1,2.27-.88l1.36-.14a5.11,5.11,0,0,0,1-.15,1.09,1.09,0,0,0,.57-.29.81.81,0,0,0,.19-.59.85.85,0,0,0-.14-.5,1.14,1.14,0,0,0-.35-.3,1.39,1.39,0,0,0-.45-.14,2.63,2.63,0,0,0-.47,0,1.92,1.92,0,0,0-1.06.29,1.28,1.28,0,0,0-.58.89h-2.07A2.83,2.83,0,0,1,386.19,195Zm3.32,3.33c-.33,0-.65.06-1,.08a6,6,0,0,0-.61.11,1.42,1.42,0,0,0-.52.21,1,1,0,0,0-.37.38,1.16,1.16,0,0,0-.14.62.75.75,0,0,0,.36.68,1.62,1.62,0,0,0,.86.22,2,2,0,0,0,.86-.16,1.9,1.9,0,0,0,.6-.42,1.93,1.93,0,0,0,.38-.59,6.35,6.35,0,0,0,.23-.65l.22-.79A2.25,2.25,0,0,1,389.51,198.33Zm-.16-5.51,1.38-2.22h2.37l-2.19,2.22Z" transform="translate(-188.92 -161.86)"/><path class="cls-1" d="M397.82,190.74l-.83,3.94h0a3.66,3.66,0,0,1,1.06-.82,3.09,3.09,0,0,1,1.33-.26,2.84,2.84,0,0,1,1.33.28,2.43,2.43,0,0,1,.9.74,3.24,3.24,0,0,1,.52,1.09,5.21,5.21,0,0,1,.16,1.33,6.52,6.52,0,0,1-.27,1.85,5,5,0,0,1-.79,1.63,4.3,4.3,0,0,1-1.32,1.15,3.64,3.64,0,0,1-1.81.43,3.72,3.72,0,0,1-1.54-.31,1.87,1.87,0,0,1-1-1.16h0l-.27,1.27h-2l2.33-11.16Zm-.41,4.88a2.68,2.68,0,0,0-.74.86,4.18,4.18,0,0,0-.42,1.12,5.32,5.32,0,0,0-.13,1.14,1.8,1.8,0,0,0,.42,1.23,1.5,1.5,0,0,0,1.19.48,1.78,1.78,0,0,0,1.08-.33,2.73,2.73,0,0,0,.74-.84,4,4,0,0,0,.42-1.1,5.06,5.06,0,0,0,.13-1.11,2.17,2.17,0,0,0-.36-1.28,1.39,1.39,0,0,0-1.22-.52A1.81,1.81,0,0,0,397.41,195.62Z" transform="translate(-188.92 -161.86)"/><path class="cls-1" d="M406.45,193.82l-1.72,8.08h-2.22l1.7-8.08Zm-2-1.25.41-1.83h2.23l-.4,1.83Z" transform="translate(-188.92 -161.86)"/><path class="cls-1" d="M410.82,190.74l-2.38,11.16h-2.2l2.36-11.16Z" transform="translate(-188.92 -161.86)"/><path class="cls-2" d="M198.05,203.57,417,203s-113.39,3.87-139.78,3.29S198.05,203.57,198.05,203.57Z" transform="translate(-188.92 -161.86)"/><path class="cls-2" d="M203.47,211.9,320,211.35s-60.35,3.67-74.4,3.12S203.47,211.9,203.47,211.9Z" transform="translate(-188.92 -161.86)"/><path class="cls-2" d="M203.67,218.87l88.85-.55s-46,3.67-56.72,3.12S203.67,218.87,203.67,218.87Z" transform="translate(-188.92 -161.86)"/><path class="cls-1" d="M197.38,180.58l2.51,22h5.91l6.09-14.13,1.26,14h5.71l9.78-22.06h-4.45L218,196l-1-15.58H211.6L204.93,196l-1.07-15.68S197.57,180.77,197.38,180.58Z" transform="translate(-188.92 -161.86)"/><polygon class="cls-1" points="41.46 18.52 37.49 40.2 41.75 40.2 44.36 25.59 47.65 33.72 51.72 33.72 58.4 25.01 55.98 40.3 61.78 40.3 65.08 18.43 59.17 18.43 51.62 28.39 47.36 18.33 41.46 18.52"/><path class="cls-2" d="M224.93,161.86h-.22C243.13,162,258,176.64,258,194.72s-15,32.85-33.54,32.85S191,212.86,191,194.72a33,33,0,0,1,25-31.79c-15.57,3.78-27.08,17.23-27.08,33.23,0,19,16.12,34.3,36,34.3s36-15.35,36-34.3S244.81,161.86,224.93,161.86Z" transform="translate(-188.92 -161.86)"/></svg>